<?xml version="1.0" standalone="no"?>
<!DOCTYPE svg PUBLIC "-//W3C//DTD SVG 20010904//EN"
 "http://www.w3.org/TR/2001/REC-SVG-20010904/DTD/svg10.dtd">
<svg version="1.0" xmlns="http://www.w3.org/2000/svg"
 width="2362.000000pt" height="2362.000000pt" viewBox="0 0 2362.000000 2362.000000"
 preserveAspectRatio="xMidYMid meet">
<metadata>
Created by potrace 1.14, written by Peter Selinger 2001-2017
</metadata>
<g transform="translate(0.000000,2362.000000) scale(0.100000,-0.100000)"
fill="#000000" stroke="none">
<path d="M21594 22779 c-41 -15 -43 -45 -49 -729 -6 -609 -12 -904 -19 -935
-2 -11 -5 -23 -5 -27 -3 -21 -37 -38 -75 -38 -42 0 -44 1 -60 45 -16 40 -29
51 -58 46 -4 0 -18 3 -31 8 -45 17 -49 66 -53 581 -3 499 -9 713 -20 768 -8
40 -39 65 -65 52 -41 -22 -46 -137 -50 -1025 -1 -291 -6 -561 -10 -599 -11
-90 -26 -106 -98 -106 l-56 0 -1 -993 c-1 -1137 -3 -1170 -67 -1179 -41 -6
-55 -62 -58 -233 -2 -83 -3 -87 -11 -45 -13 61 -36 84 -77 75 -64 -14 -68 -38
-76 -505 -2 -140 -7 -271 -11 -290 -8 -42 -30 -70 -55 -70 -47 0 -54 -57 -64
-545 -7 -306 -10 -354 -26 -402 -16 -51 -74 -56 -84 -7 -3 13 -8 36 -11 51 -3
15 -7 252 -10 528 -5 634 -12 899 -23 950 -11 45 -34 66 -65 60 -12 -2 -26 -4
-32 -4 -15 -1 -33 -45 -39 -96 -3 -22 -7 -178 -10 -347 -4 -353 -15 -418 -65
-418 -10 0 -24 -7 -31 -17 -13 -15 -15 -13 -20 18 -3 19 -6 106 -8 194 -1 88
-4 190 -6 228 -5 68 -26 126 -48 128 -73 8 -106 5 -109 -10 -2 -9 -3 -116 -2
-239 0 -123 -2 -218 -6 -211 -5 6 -25 12 -46 13 -32 1 -40 -4 -56 -30 -18 -31
-22 -62 -33 -235 -7 -124 -30 -174 -75 -162 -38 10 -47 72 -54 373 -3 96 -8
189 -12 207 -10 48 -36 66 -96 67 l-53 1 -1 -750 c-3 -1125 1 -1061 -63 -1083
-37 -13 -49 -48 -50 -151 -1 -30 -4 -51 -8 -48 -3 4 -8 177 -9 384 -3 351 -9
547 -17 583 -16 76 -53 117 -152 169 -48 26 -67 26 -87 4 -18 -20 -35 -92 -33
-140 0 -18 -3 -33 -7 -33 -4 0 -8 19 -8 43 -1 53 -10 115 -21 145 -12 31 -49
26 -66 -8 -21 -44 -24 -129 -29 -845 -3 -385 -6 -833 -7 -995 l-2 -295 -40 -3
c-85 -5 -92 -11 -101 -82 -10 -84 -13 -194 -14 -671 -1 -278 -5 -534 -10 -568
-10 -69 -32 -104 -64 -99 -28 4 -43 40 -50 118 -3 36 -8 567 -11 1180 -6 1255
-12 1870 -21 1948 -7 67 -19 101 -39 108 -17 7 -51 -19 -52 -39 -1 -6 -4 -32
-7 -57 -12 -79 -15 -342 -16 -1216 l0 -851 -57 -2 c-67 -2 -80 -10 -87 -59
-15 -95 -18 -196 -21 -912 -4 -955 -7 -987 -69 -978 -54 8 -57 58 -61 863 -4
786 -7 841 -52 863 -27 12 -65 7 -79 -12 -17 -24 -26 -108 -30 -291 -2 -88 -4
-180 -5 -205 l-1 -45 -9 54 c-10 58 -34 95 -56 87 -10 -4 -34 23 -38 44 -13
65 -18 156 -20 340 -2 124 -6 247 -9 274 -6 52 -28 95 -49 97 -70 4 -100 3
-103 -6 -2 -5 -5 -559 -8 -1230 -2 -671 -6 -1236 -9 -1255 -3 -19 -6 -42 -6
-51 -2 -31 -35 -62 -58 -55 -37 12 -45 83 -49 471 -8 710 -13 1031 -19 1070
-8 58 -30 86 -63 83 -45 -5 -53 41 -58 322 -4 288 -9 351 -29 390 -18 34 -22
36 -85 32 l-50 -4 0 -66 c0 -654 -9 -2383 -13 -2402 -3 -14 -8 -43 -12 -64 -7
-49 -22 -68 -49 -64 -51 7 -54 63 -61 918 -2 311 -6 579 -9 595 -3 17 -9 45
-12 63 -3 22 -13 36 -27 41 -69 26 -77 -23 -82 -503 -4 -439 -7 -453 -81 -465
-46 -8 -62 -33 -69 -112 -7 -76 -15 -73 -16 7 -2 164 -16 224 -54 224 -26 0
-41 -21 -49 -66 -13 -72 -16 -358 -18 -1314 -1 -565 -4 -1045 -6 -1068 l-4
-42 -77 0 -77 0 -1 1092 c-2 1317 -7 1480 -45 1504 -16 10 -56 -5 -62 -24 -18
-58 -25 -194 -26 -476 0 -99 -2 -177 -4 -175 -2 2 -7 63 -10 134 -3 72 -9 143
-14 159 -10 38 -36 55 -59 40 -31 -19 -34 -48 -48 -444 -2 -58 -8 -129 -13
-158 -5 -29 -10 -167 -11 -305 -4 -509 -11 -883 -16 -923 -8 -64 -18 -83 -55
-102 -30 -14 -36 -25 -45 -67 -6 -27 -12 -108 -14 -180 -1 -71 -5 -132 -7
-134 -2 -2 -4 443 -5 990 0 1198 -4 1355 -31 1415 -16 34 -50 31 -71 -6 -19
-31 -22 -77 -32 -540 -2 -113 -6 -215 -9 -227 -6 -30 -25 -63 -36 -64 -6 -1
-14 -3 -20 -4 -5 -1 -19 -3 -30 -4 -30 -2 -48 -39 -55 -116 -3 -38 -8 -302
-10 -585 -5 -656 -8 -691 -61 -704 -34 -9 -51 -42 -59 -111 -4 -33 -8 -283
-10 -555 -5 -656 -10 -728 -51 -744 -25 -10 -52 11 -60 46 -14 63 -15 97 -19
573 -6 799 -8 868 -20 928 -6 33 -18 63 -26 68 -8 5 -38 9 -66 9 l-53 0 -1
-77 -2 -78 -8 69 c-11 80 -31 111 -61 95 -25 -14 -36 -46 -43 -126 -3 -38 -8
-437 -10 -888 -4 -811 -9 -1058 -21 -1165 -8 -64 -21 -103 -32 -96 -7 4 -58
-19 -174 -81 -15 -8 -33 -11 -38 -8 -31 19 -33 69 -36 815 -2 415 -5 854 -8
975 -6 299 -15 345 -61 345 -58 0 -63 -80 -65 -1130 -1 -426 -5 -647 -11 -631
-5 13 -11 78 -14 144 -7 161 -21 214 -63 222 -55 10 -64 -43 -67 -420 -4 -375
5 -344 -94 -337 -45 4 -49 6 -65 43 -14 30 -25 41 -54 49 -20 5 -42 13 -49 18
-23 15 -35 69 -39 182 -6 137 -19 202 -45 225 -17 16 -20 17 -44 1 -14 -9 -25
-22 -26 -29 0 -6 -3 -21 -5 -32 -3 -11 -8 -117 -11 -235 -3 -118 -7 -216 -8
-218 -3 -4 -277 -3 -281 1 -1 1 -4 155 -6 342 -5 360 -10 398 -51 409 -44 12
-71 -49 -80 -179 -6 -86 -21 -120 -58 -136 -24 -9 -33 -9 -54 5 -33 22 -45 73
-49 209 -6 169 -29 227 -83 206 -34 -12 -45 -93 -46 -344 -1 -123 -4 -221 -6
-219 -3 3 -6 26 -7 52 -6 107 -15 152 -36 166 -25 17 -42 12 -62 -19 -17 -25
-21 -46 -31 -152 -3 -35 -10 -73 -15 -85 l-9 -23 -1 25 c-4 99 -24 158 -56
166 -56 14 -69 59 -75 254 -2 85 -21 159 -44 176 -39 29 -76 -17 -90 -110 -8
-56 -41 -96 -80 -96 -67 0 -78 -53 -79 -372 -1 -120 -3 -218 -6 -218 -3 0 -7
14 -8 31 -4 54 -29 99 -61 110 -46 16 -59 62 -65 235 -5 108 -22 179 -47 195
-35 21 -77 -33 -84 -105 -5 -63 -29 -94 -82 -108 -36 -9 -48 -17 -59 -42 -13
-30 -13 -29 -14 34 -2 388 -10 673 -20 718 -9 41 -16 53 -35 58 -68 17 -74
-23 -80 -576 -5 -428 -6 -443 -54 -493 -33 -36 -92 -63 -176 -81 -36 -7 -65
-13 -66 -12 -1 0 -2 165 -4 366 -4 500 -10 561 -62 568 -27 4 -49 -28 -58 -87
-4 -24 -9 -191 -10 -370 -5 -492 -4 -489 -26 -494 -10 -3 -140 -6 -288 -6
l-271 -2 0 448 c0 460 -5 730 -14 771 -15 70 -25 82 -67 82 -14 0 -33 6 -42
13 -34 26 -38 89 -42 802 -4 628 -6 714 -25 771 -18 55 -62 55 -79 1 -20 -65
-23 -166 -26 -747 -4 -787 -8 -828 -69 -844 -34 -8 -56 -62 -63 -153 -3 -43
-10 -89 -15 -103 l-10 -25 -9 22 c-7 21 -21 27 -74 35 -11 2 -26 17 -34 33
-16 32 -17 71 -25 1000 -2 264 -7 494 -10 510 -4 17 -9 42 -12 58 -4 18 -14
29 -30 33 -28 7 -49 -11 -58 -52 -3 -16 -9 -40 -12 -54 -3 -14 -7 -162 -9
-330 -5 -329 -9 -378 -29 -405 -7 -10 -30 -20 -52 -24 -73 -12 -74 -23 -79
-620 -3 -476 -2 -466 -55 -476 -27 -5 -48 9 -61 42 -15 41 -21 231 -24 876 -2
348 -7 661 -10 696 -7 80 -23 116 -53 117 -26 1 -37 -10 -47 -51 -14 -57 -15
-92 -20 -390 -3 -165 -7 -309 -9 -320 -12 -84 -28 -105 -80 -105 -37 0 -54
-34 -64 -121 -4 -42 -9 -392 -10 -779 -1 -387 -4 -705 -6 -707 -2 -3 -7374 -6
-8031 -3 l-60 0 0 481 c0 264 -3 483 -6 485 -4 2 -7 -38 -9 -89 -1 -50 -3
-132 -5 -182 -2 -49 -7 -223 -10 -385 -4 -162 -10 -309 -14 -325 -5 -17 -6
-46 -4 -65 3 -19 7 -62 10 -95 l4 -60 -200 1 -200 1 -7 -31 c-3 -17 -9 -35
-12 -41 -4 -5 -8 -17 -9 -25 -3 -16 -4 -434 -3 -905 l1 -270 35 -38 c20 -21
37 -37 39 -35 1 2 6 43 9 91 9 112 24 162 51 162 30 0 55 -61 60 -149 6 -97
28 -154 64 -163 31 -8 38 -10 51 -12 5 0 14 -10 20 -22 22 -40 20 1 34 -654 5
-223 14 -280 46 -290 15 -5 20 -15 20 -44 0 -30 5 -40 24 -51 13 -7 26 -20 29
-29 2 -9 5 -259 6 -556 4 -943 4 -937 81 -950 74 -12 80 -42 85 -377 4 -304
14 -370 55 -381 39 -10 68 50 75 157 9 123 48 191 90 156 28 -23 37 -96 41
-320 6 -406 10 -423 108 -428 48 -3 56 -1 57 15 0 10 0 222 0 472 0 249 2 451
3 450 2 -2 6 -50 9 -107 6 -111 21 -155 53 -160 41 -6 69 54 73 153 3 101 30
165 68 165 50 0 61 -69 64 -420 2 -205 11 -292 30 -316 6 -7 12 -29 14 -50 7
-58 25 -94 46 -94 23 0 46 35 50 75 2 17 8 36 13 43 6 9 10 307 11 805 1 436
5 812 9 837 11 62 23 80 51 80 45 0 55 -39 60 -245 11 -368 14 -384 85 -401
72 -17 79 -46 85 -349 6 -300 23 -551 38 -585 27 -56 72 -22 82 62 5 42 13
229 14 330 1 59 38 108 82 108 67 0 77 61 79 520 0 96 4 170 8 163 4 -7 23
-15 42 -18 19 -3 40 -11 47 -17 25 -20 34 -92 38 -291 6 -306 22 -371 87 -336
18 10 50 68 47 86 -9 55 37 123 83 123 61 1 72 41 78 285 2 79 3 79 10 28 4
-29 11 -64 14 -77 12 -50 69 -39 81 15 14 62 15 94 19 614 6 720 8 734 78 746
86 14 84 0 88 717 2 489 1 482 55 482 40 0 56 -38 70 -165 3 -22 7 -431 10
-910 5 -874 10 -1160 21 -1225 7 -39 29 -80 44 -80 19 0 50 40 50 64 0 14 4
27 8 30 5 3 9 -38 10 -91 2 -134 17 -222 39 -224 72 -7 102 -30 104 -78 0 -14
3 -35 5 -46 3 -11 7 -254 9 -540 5 -691 9 -740 64 -751 58 -12 62 -39 66 -529
3 -214 5 -462 6 -550 2 -202 12 -292 33 -313 11 -11 35 -17 71 -18 l55 -1 0
36 c1 20 2 635 4 1366 3 732 7 1353 10 1380 14 126 19 139 61 149 15 4 27 16
31 31 7 29 19 33 21 8 4 -38 13 -553 15 -848 1 -170 6 -338 10 -373 7 -64 31
-117 47 -108 16 10 42 -20 52 -59 5 -22 11 -233 14 -470 9 -726 14 -838 42
-866 10 -10 98 -20 116 -13 9 3 12 55 12 197 -1 166 0 188 11 160 16 -37 29
-47 65 -52 28 -3 40 -75 45 -260 8 -355 13 -430 28 -460 26 -50 97 -46 117 6
17 45 21 121 23 435 0 164 3 298 6 298 3 0 19 -8 35 -18 17 -10 66 -38 110
-62 44 -23 85 -47 92 -52 7 -5 16 -8 20 -5 4 3 8 -48 7 -114 -1 -143 12 -248
33 -271 9 -10 30 -18 48 -18 40 0 61 23 70 75 4 22 8 185 10 363 1 177 5 325
8 328 3 3 36 -12 74 -34 37 -21 94 -53 125 -71 l57 -32 0 573 c0 315 0 582 0
593 1 20 9 26 116 78 l51 25 2 -91 c3 -127 20 -189 52 -197 28 -7 49 -42 56
-97 6 -48 13 -508 15 -948 1 -317 10 -439 32 -462 4 -4 34 -9 67 -11 l60 -4 0
88 c-1 473 9 2154 13 2169 2 11 8 42 11 68 7 43 11 50 40 62 38 16 54 48 66
127 6 41 8 18 9 -97 7 -571 16 -656 69 -663 12 -2 27 -12 32 -23 20 -36 27
-185 29 -609 2 -569 8 -781 21 -830 13 -47 41 -63 104 -58 l40 3 2 1055 c2
1231 5 1312 52 1326 38 12 48 23 64 70 14 40 17 44 18 21 0 -34 25 -97 39 -98
14 -2 37 -2 55 0 22 2 53 60 60 111 11 85 48 88 196 16 l95 -45 3 84 3 85 23
-15 c17 -12 30 -13 49 -6 42 16 60 53 66 133 0 9 8 24 17 33 24 24 71 14 180
-39 l94 -45 0 37 c0 20 2 177 4 347 4 348 9 381 61 398 17 6 33 15 37 21 5 6
8 0 9 -14 1 -14 3 -41 5 -60 2 -19 5 -447 8 -950 5 -948 10 -1168 25 -1234 19
-79 72 -73 87 9 13 72 15 243 18 1328 2 654 7 1191 10 1194 3 4 6 -27 7 -68 1
-131 15 -218 36 -220 5 0 17 -2 28 -4 26 -5 64 20 75 50 5 14 12 53 15 87 13
134 41 199 80 184 43 -16 45 -54 51 -801 6 -891 12 -1433 18 -1482 9 -89 56
-129 83 -72 28 58 33 285 33 1528 0 541 2 982 5 979 13 -13 16 -144 20 -763 5
-971 9 -1025 69 -1025 55 0 56 26 62 945 4 849 10 1292 19 1347 9 65 22 88 49
88 14 0 30 -8 35 -18 20 -37 27 -158 30 -483 4 -520 8 -563 57 -575 36 -9 69
2 83 30 7 13 16 68 21 122 4 64 8 -78 9 -396 4 -785 8 -830 72 -830 54 0 56
52 60 1270 3 797 9 1033 28 1083 12 31 45 40 65 18 24 -27 33 -109 35 -342 6
-685 11 -729 78 -729 75 0 84 37 89 359 4 342 10 376 60 397 18 8 38 22 43 32
18 34 22 142 26 737 5 650 10 874 23 919 8 31 17 38 67 53 16 4 39 23 50 40
18 28 27 32 90 40 39 5 201 10 361 12 l291 2 1 -395 c1 -526 8 -585 69 -586
15 0 42 39 49 71 5 26 12 185 15 351 2 163 18 222 60 228 96 14 100 -15 103
-695 l1 -367 99 -57 c54 -32 107 -69 117 -83 33 -45 40 -124 44 -473 1 -187 6
-366 10 -397 10 -78 33 -98 105 -89 13 1 30 44 36 91 9 62 13 284 14 768 l1
472 64 -35 c141 -76 165 -97 186 -166 6 -20 12 -173 14 -359 6 -477 12 -527
65 -540 74 -18 90 20 96 244 3 94 7 172 9 174 8 9 214 -104 237 -130 37 -42
45 -96 47 -353 1 -121 4 -231 6 -245 14 -115 25 -140 61 -140 51 0 55 31 61
610 3 272 6 496 8 498 4 5 217 -107 238 -125 49 -44 56 -92 62 -413 2 -135 9
-260 14 -278 17 -56 38 -73 69 -53 39 24 44 163 46 1344 l1 964 27 -29 c14
-15 35 -28 46 -28 36 0 71 41 81 93 18 98 73 122 281 122 l145 0 2 -985 c2
-1459 9 -1772 38 -1821 12 -18 52 -9 63 14 20 37 23 78 27 412 11 748 14 882
22 915 9 35 27 49 88 67 25 7 32 16 42 58 7 27 15 146 18 265 6 266 17 320 66
320 30 0 49 42 58 126 5 51 9 -121 10 -486 3 -1114 9 -1386 35 -1440 13 -29
40 -37 59 -18 32 31 36 112 42 778 2 278 7 520 10 538 7 49 22 71 53 78 54 12
62 16 72 33 17 33 21 74 25 266 6 291 16 344 65 355 46 10 60 61 65 227 9 283
15 303 89 303 69 0 68 4 71 -488 4 -515 10 -583 54 -595 38 -10 56 17 67 103
7 51 16 425 18 695 l1 280 143 3 142 3 0 -43 c3 -325 9 -726 12 -738 3 -8 8
-29 12 -47 8 -36 35 -50 64 -34 39 21 51 123 52 466 2 211 8 258 40 275 26 14
66 12 77 -2 31 -39 35 -91 39 -498 6 -646 9 -680 68 -680 55 0 64 89 66 639 0
140 2 252 4 250 2 -2 6 -40 9 -84 6 -95 18 -131 48 -140 17 -6 27 -2 40 14 29
35 32 90 38 554 l1 67 74 0 c50 0 75 -4 79 -12 2 -7 5 -191 6 -408 3 -550 9
-632 51 -645 25 -8 60 11 61 33 0 9 2 26 4 37 10 52 14 203 15 583 l1 412 542
1 c3112 3 5061 23 5437 54 19 1 54 3 77 4 l43 1 -6 108 -6 107 58 1 c33 1 92
2 132 3 l73 1 -4 328 c-2 180 -6 338 -10 352 -8 29 -15 62 -24 110 -3 19 -6
109 -5 199 0 91 -4 174 -8 186 -18 47 -24 106 -24 235 0 150 5 202 31 305 12
45 16 86 12 115 -7 47 -3 1043 4 1095 3 17 7 53 11 80 21 161 63 308 136 475
l28 65 -3 4045 c-5 4914 -4 4830 -65 4830 -59 0 -61 37 -65 1395 -1 600 -3
1093 -4 1098 -2 14 -101 0 -121 -18 -28 -25 -35 -67 -41 -240 -4 -115 -28
-175 -71 -175 -44 0 -49 -54 -54 -575 -5 -571 -13 -1236 -15 -1255 -8 -92 -32
-130 -72 -114 -45 17 -49 117 -51 1279 -1 956 5 877 -71 868 -54 -7 -67 -16
-81 -55 -12 -31 -13 -27 -14 52 -1 135 -18 223 -43 233 -7 2 -22 1 -33 -4z
m-3537 -9161 c-3 -8 -6 -5 -6 6 -1 11 2 17 5 13 3 -3 4 -12 1 -19z m-1860
-3760 c-3 -7 -5 -2 -5 12 0 14 2 19 5 13 2 -7 2 -19 0 -25z m0 -40 c-3 -8 -6
-5 -6 6 -1 11 2 17 5 13 3 -3 4 -12 1 -19z m0 -40 c-3 -8 -6 -5 -6 6 -1 11 2
17 5 13 3 -3 4 -12 1 -19z m-3179 -1843 c-3 -3 -9 2 -12 12 -6 14 -5 15 5 6 7
-7 10 -15 7 -18z m-1578 -175 l0 -60 -42 -1 c-198 -3 -379 -1 -384 4 -5 5 -8
55 -5 100 1 16 18 17 216 17 l215 0 0 -60z m1140 0 c0 -55 -2 -60 -22 -61 -27
-1 -225 -1 -250 0 -15 1 -17 11 -17 61 l1 60 144 0 144 0 0 -60z m581 25 c-5
-43 -29 -85 -49 -86 -52 -4 -81 21 -92 80 l-7 42 76 -3 76 -3 -4 -30z m869
-27 l0 -63 -207 0 c-119 0 -211 4 -215 9 -20 29 48 91 110 102 15 3 28 7 30 9
2 2 66 4 143 4 l139 2 0 -63z m840 50 c0 -6 -3 -9 -6 -5 -3 3 -30 -5 -60 -18
l-54 -24 0 28 c0 28 1 29 60 30 39 0 60 -3 60 -11z m598 -50 l-3 -62 -125 1
c-69 1 -133 2 -142 2 -15 1 -18 11 -18 61 l0 60 145 0 146 0 -3 -62z m-421
-10 c-3 -8 -6 -5 -6 6 -1 11 2 17 5 13 3 -3 4 -12 1 -19z m0 -40 c-3 -8 -6 -5
-6 6 -1 11 2 17 5 13 3 -3 4 -12 1 -19z m-2460 -140 c-3 -8 -6 -5 -6 6 -1 11
2 17 5 13 3 -3 4 -12 1 -19z m0 -50 c-3 -7 -5 -2 -5 12 0 14 2 19 5 13 2 -7 2
-19 0 -25z m2884 9 c-10 -9 -11 -8 -5 6 3 10 9 15 12 12 3 -3 0 -11 -7 -18z
m-2884 -89 c-3 -7 -5 -2 -5 12 0 14 2 19 5 13 2 -7 2 -19 0 -25z m0 -40 c-3
-8 -6 -5 -6 6 -1 11 2 17 5 13 3 -3 4 -12 1 -19z m0 -80 c-3 -7 -5 -2 -5 12 0
14 2 19 5 13 2 -7 2 -19 0 -25z m0 -70 c-3 -8 -6 -5 -6 6 -1 11 2 17 5 13 3
-3 4 -12 1 -19z m0 -50 c-3 -7 -5 -2 -5 12 0 14 2 19 5 13 2 -7 2 -19 0 -25z
m2890 0 c-3 -7 -5 -2 -5 12 0 14 2 19 5 13 2 -7 2 -19 0 -25z m-2890 -40 c-3
-8 -6 -5 -6 6 -1 11 2 17 5 13 3 -3 4 -12 1 -19z m0 -40 c-3 -8 -6 -5 -6 6 -1
11 2 17 5 13 3 -3 4 -12 1 -19z m1440 -65 c-3 -10 -5 -4 -5 12 0 17 2 24 5 18
2 -7 2 -21 0 -30z m-1440 -15 c-3 -7 -5 -2 -5 12 0 14 2 19 5 13 2 -7 2 -19 0
-25z m0 -70 c-3 -8 -6 -5 -6 6 -1 11 2 17 5 13 3 -3 4 -12 1 -19z m0 -50 c-3
-7 -5 -2 -5 12 0 14 2 19 5 13 2 -7 2 -19 0 -25z m0 -70 c-3 -8 -6 -5 -6 6 -1
11 2 17 5 13 3 -3 4 -12 1 -19z m0 -40 c-3 -8 -6 -5 -6 6 -1 11 2 17 5 13 3
-3 4 -12 1 -19z m0 -50 c-3 -7 -5 -2 -5 12 0 14 2 19 5 13 2 -7 2 -19 0 -25z
m0 -70 c-3 -8 -6 -5 -6 6 -1 11 2 17 5 13 3 -3 4 -12 1 -19z m0 -50 c-3 -7 -5
-2 -5 12 0 14 2 19 5 13 2 -7 2 -19 0 -25z m0 -80 c-3 -7 -5 -2 -5 12 0 14 2
19 5 13 2 -7 2 -19 0 -25z m0 -80 c-3 -7 -5 -2 -5 12 0 14 2 19 5 13 2 -7 2
-19 0 -25z m0 -40 c-3 -8 -6 -5 -6 6 -1 11 2 17 5 13 3 -3 4 -12 1 -19z m0
-80 c-3 -7 -5 -2 -5 12 0 14 2 19 5 13 2 -7 2 -19 0 -25z m0 -70 c-3 -8 -6 -5
-6 6 -1 11 2 17 5 13 3 -3 4 -12 1 -19z m0 -50 c-3 -7 -5 -2 -5 12 0 14 2 19
5 13 2 -7 2 -19 0 -25z m0 -40 c-3 -8 -6 -5 -6 6 -1 11 2 17 5 13 3 -3 4 -12
1 -19z m0 -40 c-3 -8 -6 -5 -6 6 -1 11 2 17 5 13 3 -3 4 -12 1 -19z m0 -100
c-3 -7 -5 -2 -5 12 0 14 2 19 5 13 2 -7 2 -19 0 -25z m0 -50 c-3 -7 -5 -2 -5
12 0 14 2 19 5 13 2 -7 2 -19 0 -25z m-3900 -623 c0 -8 -4 -12 -9 -9 -5 3 -6
10 -3 15 9 13 12 11 12 -6z m1 -186 c-1 -17 -4 -25 -8 -18 -7 10 -2 49 5 49 2
0 3 -14 3 -31z m879 -101 c-3 -8 -6 -5 -6 6 -1 11 2 17 5 13 3 -3 4 -12 1 -19z
m-877 2 c0 -5 -2 -10 -4 -10 -3 0 -8 5 -11 10 -3 6 -1 10 4 10 6 0 11 -4 11
-10z m877 -57 c-3 -10 -5 -4 -5 12 0 17 2 24 5 18 2 -7 2 -21 0 -30z m-6920
-1435 c-3 -7 -5 -2 -5 12 0 14 2 19 5 13 2 -7 2 -19 0 -25z m0 -40 c-3 -8 -6
-5 -6 6 -1 11 2 17 5 13 3 -3 4 -12 1 -19z m0 -115 c-3 -10 -5 -4 -5 12 0 17
2 24 5 18 2 -7 2 -21 0 -30z"/>
<path d="M1995 18400 c-3 -5 -2 -10 4 -10 5 0 13 5 16 10 3 6 2 10 -4 10 -5 0
-13 -4 -16 -10z"/>
<path d="M1997 16864 c-4 -4 -7 -101 -7 -216 0 -168 3 -208 13 -208 11 0 14
40 14 203 0 191 -4 237 -20 221z"/>
<path d="M2005 13283 c-3 -32 -8 -416 -11 -853 -2 -437 -6 -801 -9 -807 -2 -7
-16 -13 -30 -13 -23 0 -25 -4 -25 -44 0 -39 3 -45 30 -56 l30 -12 1 -477 c0
-262 2 -483 4 -492 1 -8 6 -67 10 -130 8 -126 15 -154 16 -63 2 237 -3 2999
-5 3002 -2 2 -7 -23 -11 -55z"/>
<path d="M2015 8980 c3 -5 8 -10 11 -10 2 0 4 5 4 10 0 6 -5 10 -11 10 -5 0
-7 -4 -4 -10z"/>
<path d="M2019 8958 c-6 -12 -5 -48 1 -48 4 0 7 11 6 25 -1 22 -3 30 -7 23z"/>
<path d="M1510 4303 c1 -19 18 -33 34 -27 13 5 14 9 5 20 -12 15 -39 19 -39 7z"/>
<path d="M1617 4216 c8 -51 8 -206 -1 -266 -11 -78 -18 -110 -25 -110 -8 0
-35 52 -57 113 -9 26 -20 49 -23 51 -4 3 -7 -45 -9 -104 -1 -60 -7 -121 -12
-136 -6 -15 -9 -28 -7 -30 2 -2 30 1 63 7 118 21 140 69 144 319 3 160 4 153
-40 176 l-39 22 6 -42z"/>
<path d="M1990 3788 c0 -172 0 -946 0 -1720 l0 -1406 -27 -6 c-16 -3 -46 -9
-68 -12 -35 -5 -47 -8 -75 -14 -3 0 22 -15 54 -33 65 -35 92 -66 101 -112 8
-48 17 -199 18 -342 2 -96 5 -134 15 -138 6 -2 12 1 13 8 1 7 2 929 4 2050 2
1990 2 2037 -17 2037 -18 0 -18 -13 -18 -312z"/>
<path d="M1666 975 c12 -61 14 -71 23 -100 9 -28 9 -28 10 -5 0 14 -9 50 -19
80 -11 30 -17 42 -14 25z"/>
<path d="M1697 833 c-2 -5 -1 -19 4 -33 7 -23 7 -23 8 8 1 31 -3 40 -12 25z"/>
<path d="M1655 640 c-4 -17 -5 -34 -2 -36 2 -3 7 10 11 27 8 42 0 50 -9 9z"/>
</g>
</svg>
