<?xml version="1.0" standalone="no"?>
<!DOCTYPE svg PUBLIC "-//W3C//DTD SVG 20010904//EN"
 "http://www.w3.org/TR/2001/REC-SVG-20010904/DTD/svg10.dtd">
<svg version="1.0" xmlns="http://www.w3.org/2000/svg"
 width="750.000000pt" height="750.000000pt" viewBox="0 0 750.000000 750.000000"
 preserveAspectRatio="xMidYMid meet">
<metadata>
Created by potrace 1.14, written by Peter Selinger 2001-2017
</metadata>
<g transform="translate(0.000000,750.000000) scale(0.100000,-0.100000)"
fill="#000000" stroke="none">
<path d="M4509 7243 c-43 -15 -109 -62 -158 -113 -52 -54 -137 -178 -164 -238
-31 -68 -31 -68 -52 -197 -12 -71 -45 -259 -50 -285 0 -3 -10 -25 -22 -50 -24
-53 -57 -86 -96 -95 -23 -6 -33 -2 -61 28 -38 40 -45 74 -46 227 -2 267 -7
335 -28 376 -23 44 -74 102 -113 126 -39 25 -128 45 -177 41 -147 -12 -226
-143 -197 -328 13 -88 20 -114 50 -209 14 -43 25 -82 25 -87 0 -4 5 -20 12
-36 6 -15 12 -32 14 -38 1 -5 45 -138 98 -295 80 -241 120 -376 142 -485 26
-127 23 -334 -6 -459 -10 -47 -87 -225 -101 -236 -3 -3 -13 -18 -22 -35 -8
-16 -34 -52 -58 -78 -75 -86 -151 -119 -213 -93 -38 16 -120 94 -167 161 -29
40 -88 150 -94 175 -1 3 -7 19 -14 35 -46 107 -134 418 -155 545 -3 19 -8 46
-11 60 -3 14 -8 45 -11 70 -3 25 -9 65 -13 90 -6 43 -6 191 2 540 4 177 -7
250 -48 333 -30 63 -86 127 -109 127 -35 0 -71 -71 -82 -162 -5 -33 -12 -204
-13 -308 -2 -75 -13 -92 -42 -60 -40 46 -105 154 -173 289 -37 74 -81 154 -96
177 -48 68 -114 81 -178 34 -39 -29 -55 -67 -54 -133 0 -70 32 -140 97 -213 6
-7 24 -29 42 -50 17 -22 42 -52 56 -68 26 -30 58 -89 76 -138 16 -42 -4 -86
-42 -96 -79 -21 -156 14 -280 128 -69 63 -98 80 -126 75 -80 -14 -101 -138
-43 -255 28 -56 179 -218 257 -275 22 -17 42 -32 45 -35 3 -3 28 -23 55 -45
179 -143 339 -316 567 -615 127 -166 196 -275 262 -412 89 -187 114 -277 121
-442 5 -113 -12 -167 -68 -219 -96 -89 -283 -85 -453 8 -66 37 -165 137 -191
194 -9 20 -20 38 -23 41 -9 7 -59 133 -87 220 -13 41 -28 84 -32 95 -5 11 -26
70 -46 130 -98 297 -242 488 -349 461 -16 -4 -30 -21 -44 -55 -39 -89 -17
-215 63 -372 43 -85 141 -246 166 -275 11 -11 19 -24 19 -28 0 -9 169 -230
207 -271 95 -101 153 -206 153 -276 0 -25 -6 -51 -12 -56 -50 -39 -158 -6
-318 97 -105 68 -215 108 -263 96 -30 -7 -56 -58 -49 -94 3 -15 30 -51 62 -83
85 -83 238 -152 412 -187 53 -10 56 -11 613 -17 406 -5 453 -6 513 -20 18 -3
35 -7 39 -7 23 -2 118 -40 158 -63 102 -60 201 -191 210 -277 3 -33 -1 -43
-26 -66 -49 -43 -87 -51 -212 -47 -98 4 -162 10 -162 15 0 1 -13 3 -85 14 -19
2 -66 12 -105 21 -38 9 -81 19 -95 21 -14 3 -52 12 -85 21 -33 8 -67 16 -75
18 -29 6 -235 58 -250 63 -8 3 -22 6 -31 8 -8 2 -42 11 -75 20 -32 9 -77 20
-99 25 -22 5 -49 11 -60 14 -225 53 -296 53 -332 -2 -15 -22 -15 -26 3 -51 18
-25 77 -60 150 -89 70 -28 509 -167 561 -178 27 -5 182 -61 234 -84 147 -65
212 -229 143 -363 -34 -67 -109 -118 -173 -118 -65 0 -189 64 -291 149 -14 11
-30 25 -36 30 -14 12 -94 63 -121 77 -208 113 -354 160 -508 165 -124 4 -134
2 -171 -35 -36 -36 -43 -70 -23 -109 21 -39 108 -114 167 -143 31 -16 59 -31
62 -34 6 -7 99 -39 125 -44 11 -2 38 -9 60 -14 22 -6 63 -14 90 -17 28 -4 59
-8 70 -10 11 -1 38 -6 60 -9 303 -46 434 -106 495 -225 22 -45 31 -106 19
-131 -43 -90 -60 -117 -94 -153 -69 -71 -195 -127 -276 -122 -51 4 -115 36
-210 106 -46 34 -86 65 -89 69 -15 21 -149 113 -198 136 -48 23 -71 27 -154
28 -83 1 -100 -2 -124 -19 -51 -39 -40 -84 40 -158 88 -81 212 -137 335 -152
30 -4 63 -9 75 -11 12 -3 35 -7 51 -9 68 -9 92 -13 135 -25 98 -26 145 -45
173 -70 26 -23 28 -29 18 -48 -6 -12 -26 -29 -43 -38 -27 -14 -168 -56 -231
-69 -52 -11 -118 -71 -135 -123 -10 -30 -9 -36 15 -58 35 -32 92 -47 188 -47
113 0 192 37 286 134 38 39 69 74 69 79 0 5 13 28 29 52 16 24 43 72 60 108
67 137 171 148 291 30 94 -93 133 -225 91 -308 -23 -45 -104 -132 -161 -174
-54 -39 -162 -91 -320 -153 -331 -129 -451 -199 -509 -295 -49 -81 -16 -130
87 -131 75 -1 111 15 199 90 39 33 77 61 82 61 6 0 11 3 11 8 0 6 20 19 95 61
95 54 200 69 249 38 42 -28 65 -90 62 -168 -2 -81 -17 -104 -143 -234 -109
-112 -134 -147 -140 -195 -18 -131 154 -170 241 -55 46 60 141 286 160 381 2
10 9 31 15 47 6 15 9 27 6 27 -2 0 2 18 10 40 8 22 15 44 15 48 8 70 101 345
155 457 85 178 157 234 222 174 34 -32 73 -116 73 -159 0 -42 -28 -107 -75
-172 -19 -26 -35 -50 -35 -53 0 -3 -9 -15 -20 -27 -11 -12 -20 -28 -20 -35 0
-7 -4 -13 -10 -13 -5 0 -10 -6 -10 -14 0 -8 -3 -16 -7 -18 -11 -4 -67 -112
-91 -174 -11 -27 -23 -72 -26 -100 -11 -90 46 -144 153 -144 95 0 111 12 246
181 51 64 107 126 124 138 57 41 126 59 215 56 101 -4 141 -12 301 -60 88 -26
103 -30 155 -41 35 -8 43 -10 60 -16 13 -5 66 -17 150 -33 49 -10 196 -34 240
-40 25 -3 52 -8 60 -10 64 -16 353 -25 419 -13 81 15 126 62 145 150 17 76
-45 156 -141 184 -57 16 -159 15 -258 -3 -22 -4 -87 -7 -145 -8 -116 0 -158
14 -220 75 -34 33 -34 34 -19 62 20 38 101 62 254 74 49 3 133 14 160 19 11 2
34 7 50 10 84 16 197 66 225 99 33 41 8 83 -65 108 -61 21 -215 15 -310 -12
-44 -12 -84 -23 -90 -24 -5 -2 -17 -6 -25 -9 -8 -3 -49 -17 -90 -31 -41 -14
-127 -44 -190 -66 -63 -23 -122 -43 -131 -45 -9 -2 -33 -8 -54 -14 -20 -5 -76
-9 -124 -8 -78 2 -92 5 -129 31 -53 36 -73 68 -74 115 -1 86 108 214 234 275
90 43 104 45 348 51 372 10 416 13 489 36 87 27 187 106 195 152 5 32 -17 57
-78 89 -44 23 -154 30 -241 16 -27 -4 -66 -10 -85 -13 -19 -3 -69 -12 -110
-21 -41 -9 -85 -18 -97 -20 -13 -2 -34 -6 -48 -9 -53 -11 -71 -14 -110 -20
-22 -4 -61 -10 -87 -14 -73 -12 -153 -7 -182 13 -26 17 -27 17 -9 47 28 47
122 130 188 166 33 17 63 32 68 32 4 0 20 7 35 15 35 18 218 76 332 106 260
67 379 117 471 199 96 86 103 147 22 183 -43 19 -60 20 -247 15 -111 -3 -212
-8 -226 -11 -13 -3 -42 -8 -65 -12 -22 -3 -44 -7 -50 -8 -58 -13 -82 -20 -92
-28 -7 -6 -13 -7 -13 -3 0 19 -118 -63 -231 -163 -51 -44 -214 -210 -369 -372
-198 -209 -246 -255 -295 -289 -134 -93 -285 -67 -417 71 -47 48 -93 129 -105
184 -13 56 -8 178 10 231 38 113 154 262 258 329 24 16 46 32 49 35 11 15 209
110 265 127 59 19 187 47 255 56 43 6 106 16 140 22 14 3 39 6 55 8 49 6 114
16 205 31 47 8 103 17 125 21 22 3 81 14 130 25 50 11 101 22 114 25 13 3 31
9 40 13 9 5 19 10 23 10 27 5 142 48 215 81 91 41 214 124 241 164 54 80 -5
154 -114 142 -51 -5 -94 -16 -94 -25 0 -3 -13 -12 -28 -19 -16 -6 -37 -20 -48
-30 -122 -107 -168 -145 -207 -166 -40 -21 -52 -23 -89 -15 -24 6 -67 24 -97
42 -57 34 -171 137 -171 154 0 6 -7 16 -15 23 -22 18 -34 71 -22 97 15 33 47
44 402 139 72 20 137 37 145 39 154 37 305 156 294 233 -1 6 -2 19 -3 27 -2
32 -61 49 -171 48 -174 0 -259 -32 -565 -213 -362 -214 -552 -295 -665 -283
-40 5 -99 48 -118 87 -7 14 -14 63 -15 109 -1 73 2 88 28 137 54 99 202 228
423 368 37 23 76 47 87 52 11 6 45 26 75 45 30 19 60 34 67 35 6 0 13 3 15 8
3 7 136 85 238 138 30 16 57 32 60 35 3 3 41 25 85 48 75 41 368 215 390 232
97 76 123 100 137 129 20 40 13 55 -42 78 -83 37 -171 17 -342 -75 -57 -31
-119 -64 -138 -75 -19 -10 -57 -32 -85 -49 -88 -52 -209 -111 -237 -116 -15
-2 -37 1 -49 7 -18 10 -20 18 -15 51 9 56 51 146 90 193 62 75 81 93 176 167
52 41 113 92 136 115 39 39 109 134 107 144 0 3 3 15 8 28 5 13 12 47 15 76 8
64 -14 119 -55 139 -39 19 -174 14 -231 -8 -60 -25 -150 -86 -187 -128 -26
-30 -93 -170 -93 -195 0 -26 -144 -428 -160 -447 -5 -5 -9 -13 -9 -18 -2 -19
-119 -241 -143 -272 -4 -5 -33 -44 -64 -85 -180 -240 -454 -420 -576 -378 -52
18 -104 83 -125 158 -9 30 -9 235 0 270 3 14 8 36 11 49 26 116 107 269 210
396 63 77 100 117 255 274 126 128 313 325 382 402 66 74 171 194 239 273 14
16 32 37 40 45 8 9 26 32 40 51 14 19 32 42 40 50 28 28 136 174 182 245 42
66 130 224 130 235 1 6 7 27 22 70 7 19 14 62 15 95 3 84 -15 100 -113 100
-61 0 -82 -5 -139 -33 -79 -39 -147 -102 -207 -192 -50 -73 -170 -310 -170
-334 0 -9 -4 -16 -10 -16 -5 0 -10 -6 -10 -14 0 -12 -83 -206 -98 -231 -4 -5
-7 -12 -7 -15 -1 -17 -73 -135 -96 -160 -37 -38 -59 -38 -86 3 -30 44 -41 141
-37 317 7 324 31 385 245 612 116 123 192 215 216 261 28 54 22 116 -15 167
-60 84 -129 111 -213 83z"/>
</g>
</svg>
